<svg width="433" height="712" viewBox="0 0 433 712" fill="none" xmlns="http://www.w3.org/2000/svg">
<mask id="mask0_8_1495" style="mask-type:luminance" maskUnits="userSpaceOnUse" x="0" y="0" width="433" height="712">
<path d="M0.718506 0L0.718506 711.86H432.058L432.058 0H0.718506Z" fill="white"/>
</mask>
<g mask="url(#mask0_8_1495)">
<path d="M108.288 774.63L151.058 731.86C151.298 731.62 151.428 731.3 151.428 730.97V668.59L183.768 636.25C184.008 636.01 184.138 635.69 184.138 635.36V568.01C187.708 567.41 190.428 564.33 190.428 560.59C190.428 556.42 187.048 553.04 182.878 553.04C178.708 553.04 175.328 556.42 175.328 560.59C175.328 564.33 178.048 567.41 181.618 568.01V634.84L149.278 667.18C149.038 667.42 148.908 667.74 148.908 668.07V730.45L106.878 772.48H60.8784C60.2784 768.91 57.1985 766.19 53.4585 766.19C49.2885 766.19 45.9084 769.57 45.9084 773.74C45.9084 777.91 49.2885 781.29 53.4585 781.29C57.1985 781.29 60.2784 778.57 60.8784 775H107.398C107.728 775 108.048 774.87 108.288 774.63ZM182.878 565.11C180.378 565.11 178.348 563.08 178.348 560.58C178.348 558.08 180.378 556.05 182.878 556.05C185.378 556.05 187.408 558.08 187.408 560.58C187.408 563.08 185.378 565.11 182.878 565.11ZM57.9784 773.74C57.9784 776.24 55.9484 778.27 53.4484 778.27C50.9484 778.27 48.9184 776.24 48.9184 773.74C48.9184 771.24 50.9484 769.21 53.4484 769.21C55.9484 769.21 57.9784 771.24 57.9784 773.74Z" fill="#D81D1B"/>
<path d="M-1.31161 782.54H-35.4416C-36.0416 778.97 -39.1216 776.25 -42.8616 776.25C-47.0316 776.25 -50.4116 779.63 -50.4116 783.8C-50.4116 787.97 -47.0316 791.35 -42.8616 791.35C-39.1216 791.35 -36.0416 788.63 -35.4416 785.06H-0.791611C-0.461611 785.06 -0.141611 784.93 0.0983887 784.69L22.7384 762.05C22.9784 761.81 23.1084 761.49 23.1084 761.16V623.3L45.3884 601.03C45.6284 600.79 45.7584 600.47 45.7584 600.14V464.8L73.0684 437.49C73.3084 437.25 73.4384 436.93 73.4384 436.6V391.89C77.0084 391.29 79.7284 388.21 79.7284 384.47C79.7284 380.3 76.3484 376.92 72.1784 376.92C68.0084 376.92 64.6284 380.3 64.6284 384.47C64.6284 388.21 67.3484 391.29 70.9184 391.89V436.08L43.6084 463.39C43.3684 463.63 43.2384 463.95 43.2384 464.28V599.62L20.9584 621.89C20.7184 622.13 20.5884 622.45 20.5884 622.78V760.64L-1.32162 782.55L-1.31161 782.54ZM72.1684 388.99C69.6684 388.99 67.6384 386.96 67.6384 384.46C67.6384 381.96 69.6684 379.93 72.1684 379.93C74.6684 379.93 76.6984 381.96 76.6984 384.46C76.6984 386.96 74.6684 388.99 72.1684 388.99ZM-38.3316 783.8C-38.3316 786.3 -40.3616 788.33 -42.8616 788.33C-45.3616 788.33 -47.3916 786.3 -47.3916 783.8C-47.3916 781.3 -45.3616 779.27 -42.8616 779.27C-40.3616 779.27 -38.3316 781.3 -38.3316 783.8Z" fill="#D81D1B"/>
<path d="M10.5285 583.04V722.84C6.95849 723.44 4.23849 726.52 4.23849 730.26C4.23849 734.43 7.61848 737.81 11.7885 737.81C15.9585 737.81 19.3385 734.43 19.3385 730.26C19.3385 726.52 16.6185 723.44 13.0485 722.84V582.52C13.0485 582.19 12.9185 581.87 12.6785 581.63L-2.05151 566.9V454.72L10.1585 442.51C10.3985 442.27 10.5285 441.95 10.5285 441.62V348.44C15.4885 347.82 19.3385 343.59 19.3385 338.46C19.3385 332.9 14.8285 328.4 9.27849 328.4C3.71849 328.4 -0.781509 332.91 -0.781509 338.46C-0.781509 343.59 3.05849 347.82 8.02849 348.44V441.1L-4.18152 453.31C-4.42152 453.55 -4.55151 453.87 -4.55151 454.2V567.42C-4.55151 567.75 -4.42152 568.07 -4.18152 568.31L10.5485 583.04H10.5285ZM9.26849 343C6.76849 343 4.73849 340.97 4.73849 338.47C4.73849 335.97 6.76849 333.94 9.26849 333.94C11.7685 333.94 13.7985 335.97 13.7985 338.47C13.7985 340.97 11.7685 343 9.26849 343ZM11.7885 725.73C14.2885 725.73 16.3185 727.76 16.3185 730.26C16.3185 732.76 14.2885 734.79 11.7885 734.79C9.28848 734.79 7.25848 732.76 7.25848 730.26C7.25848 727.76 9.28848 725.73 11.7885 725.73Z" fill="#D81D1B"/>
<path d="M23.1084 371.18V586.98C19.5384 587.58 16.8184 590.66 16.8184 594.4C16.8184 598.57 20.1984 601.95 24.3684 601.95C28.5384 601.95 31.9184 598.57 31.9184 594.4C31.9184 590.66 29.1984 587.58 25.6284 586.98V371.7L45.3884 351.94C45.6284 351.7 45.7584 351.38 45.7584 351.05V300.64C50.7184 300.02 54.5684 295.79 54.5684 290.66C54.5684 285.1 50.0584 280.6 44.5084 280.6C38.9484 280.6 34.4484 285.11 34.4484 290.66C34.4484 295.79 38.2884 300.02 43.2584 300.64V350.53L23.4984 370.29C23.2584 370.53 23.1284 370.85 23.1284 371.18H23.1084ZM44.4984 295.19C41.9984 295.19 39.9684 293.16 39.9684 290.66C39.9684 288.16 41.9984 286.13 44.4984 286.13C46.9984 286.13 49.0284 288.16 49.0284 290.66C49.0284 293.16 46.9984 295.19 44.4984 295.19ZM24.3684 589.87C26.8684 589.87 28.8984 591.9 28.8984 594.4C28.8984 596.9 26.8684 598.93 24.3684 598.93C21.8684 598.93 19.8384 596.9 19.8384 594.4C19.8384 591.9 21.8684 589.87 24.3684 589.87Z" fill="#D81D1B"/>
<path d="M111.168 547.3V642.91C111.168 643.24 111.298 643.56 111.538 643.8L123.748 656.01V727.87C120.178 728.47 117.458 731.55 117.458 735.29C117.458 739.46 120.838 742.84 125.008 742.84C129.178 742.84 132.558 739.46 132.558 735.29C132.558 731.55 129.838 728.47 126.268 727.87V655.48C126.268 655.15 126.138 654.83 125.898 654.59L113.688 642.38V547.3C113.688 547.3 113.668 547.22 113.658 547.17C117.238 546.58 119.978 543.49 119.978 539.75C119.978 535.58 116.598 532.2 112.428 532.2C108.258 532.2 104.878 535.58 104.878 539.75C104.878 543.5 107.618 546.58 111.188 547.17C111.188 547.21 111.158 547.25 111.158 547.3H111.168ZM112.428 544.28C109.928 544.28 107.898 542.25 107.898 539.75C107.898 537.25 109.928 535.22 112.428 535.22C114.928 535.22 116.958 537.25 116.958 539.75C116.958 542.25 114.928 544.28 112.428 544.28ZM125.008 730.76C127.508 730.76 129.538 732.79 129.538 735.29C129.538 737.79 127.508 739.82 125.008 739.82C122.508 739.82 120.478 737.79 120.478 735.29C120.478 732.79 122.508 730.76 125.008 730.76Z" fill="#D81D1B"/>
<path d="M135.068 445.4H107.968C107.368 441.83 104.288 439.11 100.548 439.11C96.3784 439.11 92.9984 442.49 92.9984 446.66C92.9984 450.83 96.3784 454.21 100.548 454.21C104.288 454.21 107.368 451.49 107.968 447.92H134.548L148.908 462.28V481.89C148.908 482.22 149.038 482.54 149.278 482.78L169.038 502.54V531.21C165.468 531.81 162.748 534.89 162.748 538.63C162.748 542.8 166.128 546.18 170.298 546.18C174.468 546.18 177.848 542.8 177.848 538.63C177.848 534.89 175.128 531.81 171.558 531.21V502.02C171.558 501.69 171.428 501.37 171.188 501.13L151.428 481.37V461.76C151.428 461.43 151.298 461.11 151.058 460.87L135.958 445.78C135.718 445.54 135.398 445.41 135.068 445.41V445.4ZM170.298 534.1C172.798 534.1 174.828 536.13 174.828 538.63C174.828 541.13 172.798 543.16 170.298 543.16C167.798 543.16 165.768 541.13 165.768 538.63C165.768 536.13 167.798 534.1 170.298 534.1ZM105.078 446.66C105.078 449.16 103.048 451.19 100.548 451.19C98.0484 451.19 96.0184 449.16 96.0184 446.66C96.0184 444.16 98.0484 442.13 100.548 442.13C103.048 442.13 105.078 444.16 105.078 446.66Z" fill="#D81D1B"/>
<path d="M161.488 602.13L150.958 612.66C149.688 611.69 148.118 611.08 146.388 611.08C142.218 611.08 138.838 614.46 138.838 618.63C138.838 622.8 142.218 626.18 146.388 626.18C150.558 626.18 153.938 622.8 153.938 618.63C153.938 617.1 153.478 615.68 152.688 614.49L163.628 603.55C163.868 603.31 163.998 602.99 163.998 602.66V583.11C167.568 582.51 170.288 579.43 170.288 575.69C170.288 571.52 166.908 568.14 162.738 568.14C158.568 568.14 155.188 571.52 155.188 575.69C155.188 579.43 157.908 582.51 161.478 583.11V602.14L161.488 602.13ZM162.748 580.21C160.248 580.21 158.218 578.18 158.218 575.68C158.218 573.18 160.248 571.15 162.748 571.15C165.248 571.15 167.278 573.18 167.278 575.68C167.278 578.18 165.248 580.21 162.748 580.21ZM146.388 614.1C148.888 614.1 150.918 616.13 150.918 618.63C150.918 621.13 148.888 623.16 146.388 623.16C143.888 623.16 141.858 621.13 141.858 618.63C141.858 616.13 143.888 614.1 146.388 614.1Z" fill="#D81D1B"/>
<path d="M45.7485 633.36L54.8185 624.29C56.1985 626.04 58.3185 627.18 60.7185 627.18C64.8885 627.18 68.2685 623.8 68.2685 619.63C68.2685 615.46 64.8885 612.08 60.7185 612.08C56.5485 612.08 53.1685 615.46 53.1685 619.63C53.1685 620.45 53.3285 621.23 53.5785 621.97L43.5985 631.95C43.3585 632.19 43.2285 632.51 43.2285 632.84V740.45C39.6585 741.05 36.9385 744.13 36.9385 747.87C36.9385 752.04 40.3185 755.42 44.4885 755.42C48.6585 755.42 52.0385 752.04 52.0385 747.87C52.0385 744.13 49.3185 741.05 45.7485 740.45V633.36ZM44.4985 743.34C46.9985 743.34 49.0285 745.37 49.0285 747.87C49.0285 750.37 46.9985 752.4 44.4985 752.4C41.9985 752.4 39.9685 750.37 39.9685 747.87C39.9685 745.37 41.9985 743.34 44.4985 743.34ZM60.7185 624.16C58.2185 624.16 56.1885 622.13 56.1885 619.63C56.1885 617.13 58.2185 615.1 60.7185 615.1C63.2185 615.1 65.2485 617.13 65.2485 619.63C65.2485 622.13 63.2185 624.16 60.7185 624.16Z" fill="#D81D1B"/>
<path d="M-106.462 451.69C-112.022 451.69 -116.522 456.2 -116.522 461.75C-116.522 466.88 -112.682 471.11 -107.712 471.73V541.74L-142.572 576.6C-142.812 576.84 -142.942 577.16 -142.942 577.49V630.33C-142.942 630.66 -142.812 630.98 -142.572 631.22L-95.1315 678.65V768.7C-95.1315 769.03 -95.0015 769.35 -94.7615 769.59L-62.0515 802.3C-61.8115 802.54 -61.4915 802.67 -61.1615 802.67H31.9285C32.2585 802.67 32.5785 802.54 32.8185 802.3L50.0585 785.06H84.2385L113.688 814.51V902.05C113.688 902.38 113.818 902.7 114.058 902.94L146.768 935.65C147.008 935.89 147.328 936.02 147.658 936.02H172.818C172.818 936.02 172.898 936 172.938 935.99C173.528 939.57 176.618 942.3 180.358 942.3C184.528 942.3 187.908 938.92 187.908 934.75C187.908 930.58 184.528 927.2 180.358 927.2C176.608 927.2 173.528 929.94 172.938 933.52C172.898 933.52 172.858 933.49 172.818 933.49H148.178L116.208 901.52V813.98C116.208 813.65 116.079 813.33 115.839 813.09L85.6485 782.9C85.4085 782.66 85.0885 782.53 84.7585 782.53H49.5385C49.2085 782.53 48.8885 782.66 48.6485 782.9L31.4085 800.14H-60.6415L-92.6115 768.17V678.12C-92.6115 677.79 -92.7415 677.47 -92.9815 677.23L-140.422 629.79V578L-105.562 543.14C-105.322 542.9 -105.192 542.58 -105.192 542.25V471.72C-100.232 471.1 -96.3815 466.87 -96.3815 461.74C-96.3815 456.18 -100.892 451.68 -106.442 451.68L-106.462 451.69ZM175.828 934.76C175.828 932.26 177.858 930.23 180.358 930.23C182.858 930.23 184.888 932.26 184.888 934.76C184.888 937.26 182.858 939.29 180.358 939.29C177.858 939.29 175.828 937.26 175.828 934.76ZM-106.462 457.23C-103.962 457.23 -101.932 459.26 -101.932 461.76C-101.932 464.26 -103.962 466.29 -106.462 466.29C-108.962 466.29 -110.992 464.26 -110.992 461.76C-110.992 459.26 -108.962 457.23 -106.462 457.23Z" fill="#D81D1B"/>
<path d="M87.2684 278.09C87.2684 283.65 91.7784 288.15 97.3284 288.15C99.7284 288.15 101.938 287.3 103.668 285.9C103.718 286.13 103.808 286.35 103.988 286.53L106.138 288.68V348.02L94.2984 359.86H62.1084C61.7784 359.86 61.4584 359.99 61.2184 360.23L36.0584 385.39C35.8184 385.63 35.6884 385.95 35.6884 386.28V441.05C32.1184 441.65 29.3984 444.73 29.3984 448.47C29.3984 452.64 32.7784 456.02 36.9484 456.02C41.1184 456.02 44.4984 452.64 44.4984 448.47C44.4984 444.73 41.7785 441.65 38.2085 441.05V386.8L62.6284 362.38H94.8184C95.1484 362.38 95.4685 362.25 95.7085 362.01L108.288 349.43C108.528 349.19 108.658 348.87 108.658 348.54V288.15C108.658 287.82 108.528 287.5 108.288 287.26L105.768 284.74C105.588 284.56 105.368 284.47 105.138 284.42C106.548 282.69 107.388 280.48 107.388 278.08C107.388 272.52 102.878 268.02 97.3284 268.02C91.7684 268.02 87.2684 272.53 87.2684 278.08V278.09ZM36.9484 443.94C39.4484 443.94 41.4784 445.97 41.4784 448.47C41.4784 450.97 39.4484 453 36.9484 453C34.4484 453 32.4184 450.97 32.4184 448.47C32.4184 445.97 34.4484 443.94 36.9484 443.94ZM92.7984 278.09C92.7984 275.59 94.8284 273.56 97.3284 273.56C99.8284 273.56 101.858 275.59 101.858 278.09C101.858 280.59 99.8284 282.62 97.3284 282.62C94.8284 282.62 92.7984 280.59 92.7984 278.09Z" fill="#D81D1B"/>
<path d="M25.5284 784.42L75.5784 734.37C75.8184 734.13 75.9484 733.81 75.9484 733.48V529.68C75.9484 529.68 75.9284 529.6 75.9184 529.56C79.4984 528.97 82.2384 525.88 82.2384 522.14C82.2384 517.97 78.8584 514.59 74.6884 514.59C70.5184 514.59 67.1384 517.97 67.1384 522.14C67.1384 525.89 69.8784 528.97 73.4484 529.56C73.4484 529.6 73.4184 529.64 73.4184 529.68V732.95L23.5684 782.81C22.4584 782.17 21.1984 781.78 19.8284 781.78C15.6584 781.78 12.2784 785.16 12.2784 789.33C12.2784 793.5 15.6584 796.88 19.8284 796.88C23.9984 796.88 27.3784 793.5 27.3784 789.33C27.3784 787.44 26.6584 785.74 25.5184 784.42H25.5284ZM74.6884 526.67C72.1884 526.67 70.1584 524.64 70.1584 522.14C70.1584 519.64 72.1884 517.61 74.6884 517.61C77.1884 517.61 79.2184 519.64 79.2184 522.14C79.2184 524.64 77.1884 526.67 74.6884 526.67ZM19.8384 784.81C22.3384 784.81 24.3684 786.84 24.3684 789.34C24.3684 791.84 22.3384 793.87 19.8384 793.87C17.3384 793.87 15.3084 791.84 15.3084 789.34C15.3084 786.84 17.3384 784.81 19.8384 784.81Z" fill="#D81D1B"/>
<path d="M-56.1415 714.99C-54.0915 714.99 -52.2415 714.17 -50.8815 712.84L-37.2715 726.45V746.05C-37.2715 746.38 -37.1415 746.7 -36.9015 746.94L-21.8015 762.04C-21.5615 762.28 -21.2415 762.41 -20.9115 762.41H-3.88153C-3.28153 765.98 -0.201533 768.7 3.53847 768.7C7.70847 768.7 11.0885 765.32 11.0885 761.15C11.0885 756.98 7.70847 753.6 3.53847 753.6C-0.201533 753.6 -3.28153 756.32 -3.88153 759.89H-20.3915L-34.7515 745.53V725.93C-34.7515 725.6 -34.8815 725.28 -35.1215 725.04L-49.3915 710.76C-48.8915 709.75 -48.5915 708.63 -48.5915 707.43C-48.5915 703.26 -51.9715 699.88 -56.1415 699.88C-60.3115 699.88 -63.6915 703.26 -63.6915 707.43C-63.6915 711.6 -60.3115 714.98 -56.1415 714.98V714.99ZM-0.991531 761.16C-0.991531 758.66 1.03847 756.63 3.53847 756.63C6.03847 756.63 8.06847 758.66 8.06847 761.16C8.06847 763.66 6.03847 765.69 3.53847 765.69C1.03847 765.69 -0.991531 763.66 -0.991531 761.16ZM-51.6115 707.44C-51.6115 709.94 -53.6415 711.97 -56.1415 711.97C-58.6415 711.97 -60.6715 709.94 -60.6715 707.44C-60.6715 704.94 -58.6415 702.91 -56.1415 702.91C-53.6415 702.91 -51.6115 704.94 -51.6115 707.44Z" fill="#D81D1B"/>
<path d="M162.748 695.74C164.378 695.74 165.878 695.21 167.108 694.33L181.618 708.84V727.16C178.048 727.76 175.328 730.84 175.328 734.58C175.328 738.75 178.708 742.13 182.878 742.13C187.048 742.13 190.428 738.75 190.428 734.58C190.428 730.84 187.708 727.76 184.138 727.16V708.31C184.138 707.98 184.008 707.66 183.768 707.42L168.888 692.54C169.768 691.31 170.298 689.81 170.298 688.18C170.298 684.01 166.918 680.63 162.748 680.63C158.578 680.63 155.198 684.01 155.198 688.18C155.198 692.35 158.578 695.73 162.748 695.73V695.74ZM182.878 730.06C185.378 730.06 187.408 732.09 187.408 734.59C187.408 737.09 185.378 739.12 182.878 739.12C180.378 739.12 178.348 737.09 178.348 734.59C178.348 732.09 180.378 730.06 182.878 730.06ZM162.748 692.72C160.248 692.72 158.218 690.69 158.218 688.19C158.218 685.69 160.248 683.66 162.748 683.66C165.248 683.66 167.279 685.69 167.279 688.19C167.279 690.69 165.248 692.72 162.748 692.72Z" fill="#D81D1B"/>
<path d="M94.8184 645.42C96.4484 645.42 97.9484 644.89 99.1784 644.01L101.108 645.94V677.61L88.8984 689.82C88.6584 690.06 88.5284 690.38 88.5284 690.71V745.48C84.9584 746.08 82.2384 749.16 82.2384 752.9C82.2384 757.07 85.6184 760.45 89.7884 760.45C93.9584 760.45 97.3384 757.07 97.3384 752.9C97.3384 749.16 94.6184 746.08 91.0484 745.48V691.23L103.258 679.02C103.498 678.78 103.628 678.46 103.628 678.13V645.42C103.628 645.09 103.498 644.77 103.258 644.53L100.958 642.23C101.838 641 102.368 639.5 102.368 637.87C102.368 633.7 98.9884 630.32 94.8184 630.32C90.6484 630.32 87.2684 633.7 87.2684 637.87C87.2684 642.04 90.6484 645.42 94.8184 645.42ZM89.7784 748.38C92.2784 748.38 94.3084 750.41 94.3084 752.91C94.3084 755.41 92.2784 757.44 89.7784 757.44C87.2784 757.44 85.2484 755.41 85.2484 752.91C85.2484 750.41 87.2784 748.38 89.7784 748.38ZM94.8184 642.4C92.3184 642.4 90.2884 640.37 90.2884 637.87C90.2884 635.37 92.3184 633.34 94.8184 633.34C97.3184 633.34 99.3484 635.37 99.3484 637.87C99.3484 640.37 97.3184 642.4 94.8184 642.4Z" fill="#D81D1B"/>
<path d="M151.428 522.72V551.81L134.188 569.05C133.948 569.29 133.818 569.61 133.818 569.94V642.33C130.248 642.93 127.528 646.01 127.528 649.75C127.528 653.92 130.908 657.3 135.078 657.3C139.248 657.3 142.628 653.92 142.628 649.75C142.628 646.01 139.908 642.93 136.338 642.33V570.46L153.578 553.22C153.818 552.98 153.948 552.66 153.948 552.33V522.72C157.518 522.12 160.238 519.04 160.238 515.3C160.238 511.13 156.858 507.75 152.688 507.75C148.518 507.75 145.138 511.13 145.138 515.3C145.138 519.04 147.858 522.12 151.428 522.72ZM152.678 519.82C150.178 519.82 148.148 517.79 148.148 515.29C148.148 512.79 150.178 510.76 152.678 510.76C155.178 510.76 157.208 512.79 157.208 515.29C157.208 517.79 155.178 519.82 152.678 519.82ZM135.068 645.22C137.568 645.22 139.598 647.25 139.598 649.75C139.598 652.25 137.568 654.28 135.068 654.28C132.568 654.28 130.538 652.25 130.538 649.75C130.538 647.25 132.568 645.22 135.068 645.22Z" fill="#D81D1B"/>
<path d="M141.918 426.53C138.178 426.53 135.098 429.25 134.498 432.82H97.3384C97.0084 432.82 96.6884 432.95 96.4484 433.19L78.8384 450.8C78.5984 451.04 78.4684 451.36 78.4684 451.69V494.46C78.4684 494.79 78.5984 495.11 78.8384 495.35L93.5684 510.08V595.1C93.5684 595.1 93.5884 595.18 93.5984 595.22C90.0184 595.81 87.2784 598.9 87.2784 602.64C87.2784 606.81 90.6584 610.19 94.8284 610.19C98.9984 610.19 102.378 606.81 102.378 602.64C102.378 598.89 99.6384 595.81 96.0584 595.22C96.0584 595.18 96.0884 595.14 96.0884 595.1V509.56C96.0884 509.23 95.9584 508.91 95.7184 508.67L80.9884 493.94V452.21L97.8584 435.33H134.498C135.098 438.9 138.178 441.62 141.918 441.62C146.088 441.62 149.468 438.24 149.468 434.07C149.468 429.9 146.088 426.52 141.918 426.52V426.53ZM94.8184 598.12C97.3184 598.12 99.3484 600.15 99.3484 602.65C99.3484 605.15 97.3184 607.18 94.8184 607.18C92.3184 607.18 90.2884 605.15 90.2884 602.65C90.2884 600.15 92.3184 598.12 94.8184 598.12ZM141.918 429.55C144.418 429.55 146.448 431.58 146.448 434.08C146.448 436.58 144.418 438.61 141.918 438.61C139.418 438.61 137.388 436.58 137.388 434.08C137.388 431.58 139.418 429.55 141.918 429.55Z" fill="#D81D1B"/>
<path d="M16.8184 470.01C16.8184 465.84 13.4384 462.46 9.26839 462.46C5.09839 462.46 1.71838 465.84 1.71838 470.01C1.71838 473.75 4.43838 476.83 8.00838 477.43V549.82C8.00838 549.82 8.02838 549.9 8.02838 549.94C4.44838 550.53 1.71838 553.62 1.71838 557.36C1.71838 561.53 5.09839 564.91 9.26839 564.91C13.4384 564.91 16.8184 561.53 16.8184 557.36C16.8184 553.61 14.0784 550.53 10.4984 549.94C10.4984 549.9 10.5184 549.86 10.5184 549.82V477.43C14.0884 476.83 16.8084 473.75 16.8084 470.01H16.8184ZM9.26839 552.83C11.7684 552.83 13.7984 554.86 13.7984 557.36C13.7984 559.86 11.7684 561.89 9.26839 561.89C6.76839 561.89 4.73839 559.86 4.73839 557.36C4.73839 554.86 6.76839 552.83 9.26839 552.83ZM13.7984 470.01C13.7984 472.51 11.7684 474.54 9.26839 474.54C6.76839 474.54 4.73839 472.51 4.73839 470.01C4.73839 467.51 6.76839 465.48 9.26839 465.48C11.7684 465.48 13.7984 467.51 13.7984 470.01Z" fill="#D81D1B"/>
<path d="M-13.3716 342.8C-9.20161 342.8 -5.82162 339.42 -5.82162 335.25C-5.82162 331.51 -8.54162 328.43 -12.1116 327.83V313.83L7.64838 294.07C7.88838 293.83 8.01839 293.51 8.01839 293.18V283.03C12.9784 282.41 16.8284 278.18 16.8284 273.05C16.8284 267.49 12.3184 262.99 6.76839 262.99C1.20839 262.99 -3.29161 267.5 -3.29161 273.05C-3.29161 278.18 0.548387 282.41 5.51839 283.03V292.66L-14.2416 312.42C-14.4816 312.66 -14.6116 312.98 -14.6116 313.31V327.83C-18.1816 328.43 -20.9016 331.51 -20.9016 335.25C-20.9016 339.42 -17.5216 342.8 -13.3516 342.8H-13.3716ZM6.75838 277.58C4.25838 277.58 2.22838 275.55 2.22838 273.05C2.22838 270.55 4.25838 268.52 6.75838 268.52C9.25838 268.52 11.2884 270.55 11.2884 273.05C11.2884 275.55 9.25838 277.58 6.75838 277.58ZM-13.3716 339.78C-15.8716 339.78 -17.9016 337.75 -17.9016 335.25C-17.9016 332.75 -15.8716 330.72 -13.3716 330.72C-10.8716 330.72 -8.84161 332.75 -8.84161 335.25C-8.84161 337.75 -10.8716 339.78 -13.3716 339.78Z" fill="#D81D1B"/>
</g>
</svg>
