<svg width="28" height="20" viewBox="0 0 28 20" fill="none" xmlns="http://www.w3.org/2000/svg">
<g clip-path="url(#clip0_4_12356)">
<path d="M14.0046 19.6429C10.8101 19.6429 7.61556 19.652 4.42105 19.6429C2.12357 19.6337 0.503432 18.3065 0.0549199 16.1005C0 15.8534 0 15.5879 0 15.3317C0 11.6978 0 8.07307 0 4.43921C0 1.87628 1.73913 0.0364602 4.31121 0.0181536C10.7643 -0.0093064 17.2265 -0.0093064 23.6796 0.0181536C26.2517 0.0273069 28 1.86712 28 4.4209C28 8.009 28 11.5879 28 15.1761C28 17.8122 26.2334 19.6154 23.5973 19.6337C20.4027 19.652 17.2082 19.6337 14.0137 19.6337L14.0046 19.6429ZM25.1808 4.75957C21.73 6.82822 18.3616 8.8328 15.0114 10.874C14.2975 11.3133 13.6842 11.295 12.9794 10.8557C10.4439 9.29962 7.88101 7.78017 5.33638 6.25156C4.52174 5.76644 3.69794 5.28131 2.82838 4.76873C2.82838 8.33852 2.82838 11.8168 2.82838 15.295C2.82838 16.3202 3.36842 16.8236 4.40275 16.8236C7.62471 16.8236 10.8375 16.8236 14.0595 16.8236C17.254 16.8236 20.4485 16.8236 23.6522 16.8236C24.595 16.8236 25.1808 16.3385 25.1808 15.4506C25.1991 11.9083 25.1808 8.37513 25.1808 4.75957ZM5.29977 2.85568C5.29977 2.85568 5.28146 2.92891 5.26316 2.96552C8.07323 4.64973 10.8741 6.3431 13.7025 7.99985C13.8764 8.10053 14.2426 8.03646 14.4439 7.91747C17.0984 6.35225 19.7437 4.76873 22.389 3.1852C22.5172 3.11198 22.627 3.00214 22.8101 2.85568H5.29977Z" fill="white"/>
</g>
<defs>
<clipPath id="clip0_4_12356">
<rect width="28" height="19.6522" fill="white"/>
</clipPath>
</defs>
</svg>
