<svg width="88" height="86" viewBox="0 0 88 86" fill="none" xmlns="http://www.w3.org/2000/svg">
<g clip-path="url(#clip0_8_1804)">
<path d="M0.471741 40.9604C0.681741 39.3204 0.861741 37.6704 1.12174 36.0404C1.87174 31.3004 3.46174 26.8304 5.76174 22.6304C8.91174 16.8504 13.1817 12.0404 18.5117 8.18035C23.5617 4.53035 29.1517 2.11035 35.2517 0.910351C46.5317 -1.30965 57.0717 0.660351 66.8417 6.71035C67.1517 6.90035 67.4617 7.10035 67.8617 7.35035C68.6617 6.19035 69.4517 5.04035 70.2617 3.91035C70.6417 3.38035 70.9917 2.51035 71.7517 2.80035C72.2117 2.98035 72.5717 3.73035 72.7317 4.30035C73.7517 7.78035 74.7117 11.2804 75.6817 14.7804C76.1917 16.6304 75.4517 17.6304 73.5217 17.7904C69.9317 18.1004 66.3417 18.4304 62.7517 18.7504C62.6717 18.7504 62.5817 18.7904 62.5017 18.7704C61.9817 18.6404 61.2317 18.6404 61.0217 18.3104C60.8217 18.0004 61.0917 17.2504 61.3517 16.8204C62.1317 15.5604 63.0117 14.3604 63.8817 13.1004C61.4217 11.4404 58.8417 10.1404 56.1117 9.16035C51.0817 7.35035 45.8917 6.66035 40.5717 7.15035C33.8417 7.77035 27.6917 10.0304 22.2517 14.0804C15.0417 19.4504 10.3917 26.5303 8.35174 35.3004C7.38174 39.4904 7.22174 43.7204 7.81174 47.9704C9.14174 57.6004 13.5417 65.5403 21.1217 71.6603C25.8117 75.4403 31.1517 77.8404 37.0617 79.0004C39.2817 79.4404 40.5217 81.1603 40.1217 83.1003C39.7217 85.0303 37.9917 86.2403 36.0417 85.8803C29.4317 84.6503 23.4117 82.0703 18.0217 78.0403C11.9817 73.5303 7.37174 67.8804 4.29174 60.9904C2.25174 56.4304 1.04174 51.6504 0.641741 46.6704C0.621741 46.4004 0.541741 46.1304 0.481741 45.8604C0.481741 44.2304 0.481741 42.5904 0.481741 40.9604H0.471741Z" fill="#D81D1B"/>
<path d="M38.8217 31.6203C38.8217 27.1403 38.8117 22.6603 38.8217 18.1803C38.8217 16.4503 39.9317 15.2603 41.5117 15.2103C43.1417 15.1603 44.4017 16.3503 44.4217 18.0503C44.4517 20.6103 44.4217 23.1803 44.4217 25.7403C44.4217 31.1203 44.4317 36.5003 44.4117 41.8903C44.4117 42.4503 44.5917 42.7303 45.0817 42.9803C52.2917 46.6903 59.4817 50.4103 66.6817 54.1403C68.2117 54.9303 68.8117 56.0703 68.4617 57.4803C68.0717 59.0803 66.4117 59.9903 64.8517 59.4603C64.5317 59.3503 64.2317 59.2003 63.9317 59.0503C55.8117 54.8503 47.6917 50.6503 39.5517 46.4603C39.0017 46.1703 38.8017 45.8603 38.8017 45.2403C38.8317 40.7003 38.8117 36.1703 38.8217 31.6303V31.6203Z" fill="#D81D1B"/>
<path d="M75.5517 63.5603C78.1817 63.7803 79.9117 66.5403 78.6517 68.7503C78.0117 69.8803 77.1217 70.9203 76.1817 71.8203C75.0117 72.9303 73.0717 72.8203 71.8417 71.7703C70.5917 70.7103 70.1717 68.8603 71.0317 67.4903C71.6817 66.4503 72.4617 65.4503 73.3517 64.6203C73.9217 64.0903 74.8117 63.9003 75.5517 63.5603Z" fill="#D81D1B"/>
<path d="M56.8017 81.9402C56.8017 83.4402 55.9017 84.7602 54.4517 85.1902C53.4317 85.5002 52.3817 85.7302 51.3317 85.8802C49.5617 86.1202 47.9517 84.8802 47.5717 83.0902C47.2217 81.4302 48.2117 79.6702 49.8717 79.1702C50.8317 78.8802 51.8317 78.6402 52.8317 78.5102C55.0217 78.2102 56.8117 79.7902 56.8117 81.9402H56.8017Z" fill="#D81D1B"/>
<path d="M85.1917 55.8703C84.8417 56.7303 84.3917 58.2603 83.6217 59.5903C82.8617 60.9003 81.0317 61.2603 79.6317 60.6703C78.1217 60.0303 77.1917 58.5103 77.5517 56.9403C77.8117 55.7703 78.2117 54.6103 78.7217 53.5203C79.3917 52.0703 81.0917 51.4003 82.6617 51.8103C84.1617 52.2103 85.2117 53.5903 85.2017 55.8603L85.1917 55.8703Z" fill="#D81D1B"/>
<path d="M81.1417 34.2403C80.0217 34.1703 78.9417 33.5203 78.3717 32.1703C77.9917 31.2703 77.6517 30.3403 77.3817 29.4003C76.9017 27.7303 77.7917 25.9903 79.3917 25.3303C80.9617 24.6803 82.8617 25.2303 83.6417 26.7303C84.2317 27.8703 84.7017 29.1103 84.9617 30.3503C85.3917 32.4103 83.6017 34.3203 81.1517 34.2503L81.1417 34.2403Z" fill="#D81D1B"/>
<path d="M80.0817 42.9902C80.0817 42.6002 80.0717 42.2002 80.0817 41.8102C80.1517 39.7902 81.6117 38.2902 83.5217 38.2802C85.3917 38.2702 86.9017 39.7102 87.0217 41.6902C87.0717 42.5602 87.0717 43.4302 87.0317 44.3002C86.9417 46.2002 85.4017 47.6802 83.5917 47.6702C81.6917 47.6602 80.2017 46.2102 80.1117 44.2602C80.0917 43.8402 80.1117 43.4202 80.1117 43.0002H80.0917L80.0817 42.9902Z" fill="#D81D1B"/>
<path d="M64.1517 81.2003C62.2217 81.2203 60.8717 80.2803 60.3917 78.9103C59.9017 77.5203 60.3318 75.9303 61.5318 75.0603C62.3918 74.4303 63.3117 73.8703 64.2517 73.3803C65.5817 72.6803 67.2418 73.0303 68.2718 74.1303C69.2818 75.2103 69.5817 76.8703 68.7817 78.1103C67.6017 79.9203 65.7217 80.7203 64.1617 81.2203L64.1517 81.2003Z" fill="#D81D1B"/>
</g>
<defs>
<clipPath id="clip0_8_1804">
<rect width="86.58" height="85.93" fill="white" transform="translate(0.471741 0.0202637)"/>
</clipPath>
</defs>
</svg>
