<svg width="25" height="34" viewBox="0 0 25 34" fill="none" xmlns="http://www.w3.org/2000/svg">
<g clip-path="url(#clip0_4_12342)">
<path d="M12.5 0C5.60886 0 0 5.60886 0 12.5C0 22.7768 11.2546 32.8044 11.7343 33.2288C11.9557 33.4225 12.2232 33.5148 12.5 33.5148C12.7768 33.5148 13.0443 33.4225 13.2657 33.2288C13.7454 32.8044 25 22.7768 25 12.5C25 5.60886 19.3911 0 12.5 0ZM12.5 30.7749C10.0092 28.3672 2.3155 20.2768 2.3155 12.5092C2.3155 6.88192 6.88192 2.3155 12.5 2.3155C18.1181 2.3155 22.6845 6.88192 22.6845 12.5092C22.6845 20.2768 14.9908 28.3672 12.5 30.7749Z" fill="white"/>
<path d="M12.5 6.67896C9.30807 6.67896 6.71582 9.28966 6.71582 12.5C6.71582 15.7103 9.30807 18.321 12.5 18.321C15.6918 18.321 18.2841 15.7103 18.2841 12.5C18.2841 9.28966 15.6918 6.67896 12.5 6.67896ZM12.5 16.0147C10.5811 16.0147 9.03132 14.4373 9.03132 12.5C9.03132 10.5627 10.5904 8.98523 12.5 8.98523C14.4095 8.98523 15.9686 10.5627 15.9686 12.5C15.9686 14.4373 14.4095 16.0147 12.5 16.0147Z" fill="white"/>
</g>
<defs>
<clipPath id="clip0_4_12342">
<rect width="25" height="33.5148" fill="white"/>
</clipPath>
</defs>
</svg>
