<svg width="71" height="91" viewBox="0 0 71 91" fill="none" xmlns="http://www.w3.org/2000/svg">
<g clip-path="url(#clip0_8_1813)">
<path d="M69.2267 38.4903C68.1767 37.4703 66.7467 36.9503 65.1767 36.9703C64.1967 37.0003 63.2067 36.9903 62.2267 36.9803C61.3867 36.9803 60.5467 36.9703 59.7067 36.9803C59.7367 33.1703 59.7267 29.3503 59.7167 25.5403V23.6503C59.7167 21.3503 59.3567 19.0703 58.6567 16.8503C57.5567 13.3903 55.7767 10.3103 53.3467 7.72029C49.5567 3.67029 44.8667 1.18029 39.4167 0.320295C36.2767 -0.179705 33.1267 -0.0397051 30.0467 0.720295C26.3667 1.63029 23.0467 3.3403 20.1767 5.7903C17.3367 8.2303 15.1467 11.1903 13.6867 14.6103C12.6267 17.0803 12.0767 19.2103 11.9767 21.3003C11.8567 23.6603 11.8367 26.0603 11.8067 28.3803V29.0603C11.7767 31.4103 11.7867 33.7703 11.7967 36.1203V36.9703C9.99671 36.9503 8.18671 36.9303 6.38671 36.9503C4.30671 36.9703 2.78671 37.6803 1.73671 39.1403C0.966711 40.2103 0.586711 41.4603 0.586711 42.9703V45.2203C0.586711 46.3103 0.586711 47.3903 0.586711 48.4803L0.616711 57.7003C0.636711 64.1103 0.666711 70.5103 0.676711 76.9203C0.676711 79.2203 0.646711 81.6903 0.576711 84.6903C0.536711 86.3003 1.09671 87.7803 2.15671 88.8503C3.21671 89.9303 4.69671 90.5303 6.33671 90.5303H6.38671C13.4867 90.4803 20.7167 90.4903 27.6967 90.5003H35.7367H43.7467C50.9267 90.5003 58.1067 90.5003 65.2967 90.5203H65.3267C66.8467 90.5203 68.2567 89.9503 69.2967 88.9203C70.3467 87.8703 70.9267 86.4303 70.9267 84.8603C70.9267 70.8103 70.9067 56.7703 70.9267 42.7203C70.9267 41.0703 70.3267 39.5603 69.2167 38.4903H69.2267ZM16.7067 23.6503C16.8367 17.6103 19.4067 12.5903 24.3467 8.75029C26.3067 7.22029 28.5967 6.13029 31.1467 5.51029C33.8367 4.85029 36.5967 4.7803 39.3467 5.3003C43.1667 6.0203 46.5267 7.8203 49.3467 10.6403C51.9167 13.2103 53.6167 16.3303 54.4067 19.9003C54.6667 21.0903 54.8067 22.4103 54.8267 23.8503C54.8667 27.0303 54.8567 30.2703 54.8567 33.3903V36.9703H16.6867C16.6867 35.6303 16.6867 34.2803 16.6767 32.9403C16.6567 29.8903 16.6467 26.7403 16.7067 23.6503ZM6.31671 85.6203C6.10671 85.6203 5.82671 85.5903 5.66671 85.4303C5.49671 85.2603 5.46671 84.9603 5.47671 84.7903V84.6803C5.47671 83.5703 5.48671 82.4603 5.47671 81.3003C6.70671 81.3103 7.94671 81.3003 9.18671 81.3003H11.2467C12.3067 81.3003 13.1267 80.7403 13.4867 79.7703C13.9067 78.6403 13.5467 77.4803 12.5867 76.8903C12.0667 76.5703 11.4467 76.5003 11.0267 76.4903C9.80671 76.4803 8.58671 76.4803 7.35671 76.4803H5.47671C5.48671 75.7303 5.47671 74.9803 5.45671 74.2403C6.09671 74.2603 6.62671 74.2703 7.10671 74.2403C8.49671 74.1803 9.41671 73.1903 9.38671 71.7803C9.35671 70.4303 8.42671 69.4903 7.07671 69.4403C6.54671 69.4203 6.00671 69.4103 5.44671 69.4203C5.44671 68.3403 5.45671 67.2503 5.44671 66.1403C7.34671 66.1503 9.25671 66.1603 11.1567 66.1403C12.0167 66.1403 12.7667 65.7603 13.2067 65.1303C13.6467 64.5003 13.7467 63.6703 13.4567 62.8503C13.1167 61.8703 12.1067 61.2403 10.8767 61.2403C9.55671 61.2403 8.24671 61.2403 6.92671 61.2403H5.44671C5.44671 60.3503 5.44671 59.4703 5.44671 58.6003C5.64671 58.6003 5.83671 58.6003 6.02671 58.6003C6.29671 58.6003 6.56671 58.6003 6.83671 58.6003C8.33671 58.5603 9.29671 57.6303 9.35671 56.1803C9.38671 55.5203 9.09671 54.8603 8.58671 54.3803C8.06671 53.8903 7.35671 53.6503 6.66671 53.7303C6.36671 53.7603 6.03671 53.7603 5.68671 53.7503C5.59671 53.7503 5.50671 53.7503 5.41671 53.7503C5.41671 52.8403 5.41671 51.9303 5.41671 51.0203C5.97671 51.0203 6.53671 51.0203 7.09671 51.0203C8.36671 51.0203 9.64671 51.0103 10.9167 51.0403C11.6867 51.0403 12.3767 50.8103 12.8667 50.3303C13.3267 49.8803 13.5867 49.2703 13.5867 48.6003C13.5867 47.1303 12.5467 46.1803 10.9367 46.1703H10.6967C8.92671 46.1603 7.16671 46.1503 5.39671 46.1703C5.41671 45.4703 5.41671 44.7603 5.40671 44.0603C5.40671 43.6103 5.40671 43.1603 5.40671 42.7103C5.40671 42.0203 5.53671 41.8903 6.23671 41.8603C6.44671 41.8603 6.65671 41.8603 6.85671 41.8603H64.6467C64.8867 41.8603 65.1367 41.8603 65.3767 41.8903C65.8967 41.9503 65.9267 42.1303 65.9367 42.4103C65.9767 43.3703 65.9667 44.3203 65.9667 45.2803C65.9667 45.5703 65.9667 45.8603 65.9667 46.1503H64.0667C62.8567 46.1503 61.6467 46.1503 60.4367 46.1503C58.4767 46.1503 57.9667 47.4003 57.8267 48.1503C57.6967 48.8803 57.8767 49.6103 58.3267 50.1603C58.7667 50.6903 59.4367 51.0003 60.1567 51.0103C62.0667 51.0303 63.9767 51.0303 65.9667 51.0103C65.9467 51.9603 65.9467 52.8503 65.9667 53.7303C65.5967 53.7203 65.2267 53.7303 64.8667 53.7303H64.4767C63.0967 53.7503 62.0967 54.7003 62.0367 56.0403C61.9867 57.4503 62.9167 58.5003 64.3067 58.5903C64.6867 58.6103 65.0667 58.6103 65.4467 58.6103C65.6067 58.6103 65.7767 58.6103 65.9367 58.6103C65.9567 59.4903 65.9567 60.3703 65.9467 61.2403H64.5867C63.2367 61.2403 61.8867 61.2403 60.5267 61.2403C59.6567 61.2403 58.9067 61.5403 58.3967 62.0803C57.9767 62.5303 57.7567 63.1103 57.7867 63.7303C57.8567 65.2003 59.0167 66.2103 60.6067 66.2103H62.2767C63.4767 66.1903 64.6767 66.1803 65.9567 66.1503C65.9367 67.2603 65.9267 68.3403 65.9567 69.4303C65.3767 69.4103 64.8067 69.4303 64.3367 69.4403C62.9867 69.4903 62.0567 70.4303 62.0267 71.7803C61.9967 73.2103 62.8867 74.1703 64.2967 74.2403C64.8367 74.2703 65.3767 74.2703 65.9567 74.2603C65.9567 74.9903 65.9467 75.7303 65.9567 76.4803C65.2467 76.4803 64.5367 76.4803 63.8267 76.4803C62.6467 76.4803 61.4667 76.4803 60.2867 76.4703C59.4167 76.4503 58.6867 76.8203 58.2267 77.4703C57.7667 78.1103 57.6467 78.9703 57.9267 79.7203C58.3067 80.7403 59.1067 81.3103 60.2067 81.3103H65.9567V82.4303C65.9567 83.2003 65.9567 83.9803 65.9567 84.7503C65.9567 84.9303 65.9367 85.2503 65.7567 85.4303C65.5967 85.5903 65.3167 85.6103 65.0867 85.6203C60.5467 85.6003 56.0067 85.5903 51.4667 85.5903C49.2967 85.5903 47.1367 85.5903 44.9667 85.5903H38.4667H30.9567C22.7067 85.5903 14.4667 85.5903 6.21671 85.6103L6.31671 85.6203Z" fill="#D81D1B"/>
<path d="M35.7767 81.3303C40.5267 81.3203 44.9767 79.4503 48.3167 76.0703C51.5867 72.7503 53.3667 68.3803 53.3267 63.7503C53.3967 59.1203 51.4967 54.5503 48.1067 51.2103C44.6667 47.8203 40.0167 46.0603 35.0467 46.1803C25.8067 46.4603 18.2367 54.3003 18.1667 63.6603C18.1367 68.3403 19.9567 72.7703 23.3067 76.1303C26.6467 79.4803 31.0567 81.3303 35.7267 81.3303H35.7767ZM26.6767 72.6903C24.3067 70.2803 23.0167 67.0703 23.0567 63.6503C23.1367 56.4503 28.5967 51.1303 36.0267 51.0103C43.0367 51.2603 48.4967 56.8703 48.4767 63.7803C48.4467 70.8803 42.8767 76.4403 35.7767 76.4403H35.7567C32.2867 76.4403 29.0667 75.1003 26.6767 72.6803V72.6903Z" fill="#D81D1B"/>
<path d="M35.7867 72.5702C36.7667 72.5502 37.5067 71.8202 37.5267 70.8202C37.5267 70.7202 37.5267 70.6202 37.5267 70.5202C37.5267 70.4902 37.5267 70.4402 37.5267 70.4102C37.7067 70.3502 37.8967 70.2902 38.0767 70.2302C38.4967 70.1002 38.9367 69.9702 39.3567 69.7502C40.9467 68.9102 41.7067 67.4702 41.5567 65.5902C41.4367 64.0402 40.5267 62.9302 38.9267 62.3702C38.0067 62.0502 37.0667 61.8002 36.1567 61.5502C35.6967 61.4302 35.2467 61.3002 34.7867 61.1702C34.4767 61.0802 34.3467 60.9102 34.3467 60.8602C34.3467 60.7802 34.5267 60.5302 34.8267 60.4402C35.7567 60.1502 36.7267 60.2202 37.9767 60.6702C38.5467 60.8702 39.1367 60.8502 39.6367 60.6102C40.1167 60.3802 40.4867 59.9602 40.6767 59.4302C40.8367 58.9702 40.7967 58.4602 40.5567 58.0002C40.2867 57.4902 39.8067 57.1102 39.2367 56.9602C38.7267 56.8202 38.2067 56.6902 37.6667 56.5702L37.5467 56.5402C37.5467 56.4502 37.5467 56.3502 37.5467 56.2602C37.5467 55.7102 37.3167 55.2202 36.9167 54.8902C36.5167 54.5602 35.9967 54.4302 35.4467 54.5202C35.0167 54.5902 33.9967 54.9302 33.9967 56.4202V56.6002C33.9967 56.6002 33.9367 56.6102 33.9067 56.6202L33.7667 56.6502C32.7467 56.9002 31.3067 57.4002 30.5367 58.8702C29.8567 60.1502 29.7567 61.4702 30.2367 62.5902C30.7267 63.7302 31.7867 64.5702 33.2167 64.9702C33.6167 65.0802 34.0167 65.1902 34.4167 65.3002C35.1767 65.5102 35.9467 65.7102 36.6967 65.9402C37.0267 66.0402 37.1667 66.2302 37.1767 66.2702C37.1767 66.3402 36.9767 66.5602 36.5867 66.6502C35.2067 67.0102 33.8867 66.6002 32.7767 66.1502C31.8467 65.7802 30.6967 66.1702 30.2567 67.0102C29.9967 67.5202 29.9567 68.1402 30.1667 68.6902C30.3467 69.1802 30.6967 69.5502 31.1567 69.7302C31.8167 69.9902 32.6967 70.3102 33.6267 70.4602L33.8067 70.4902C33.8767 70.5002 33.9467 70.5102 34.0067 70.5202C34.0067 70.6102 34.0067 70.7202 34.0067 70.8102C34.0367 71.8402 34.7767 72.5702 35.7767 72.5702H35.8167H35.7867Z" fill="#D81D1B"/>
</g>
<defs>
<clipPath id="clip0_8_1813">
<rect width="70.35" height="90.5" fill="white" transform="translate(0.586731 0.0202637)"/>
</clipPath>
</defs>
</svg>
