<svg width="190" height="95" viewBox="0 0 190 95" fill="none" xmlns="http://www.w3.org/2000/svg">
<path d="M130.35 66.2663C131.82 65.8163 133.27 65.2963 134.75 64.9463C138.17 64.1363 141.13 62.6363 143.23 59.6963C143.82 58.8663 143.84 58.2863 143.13 57.4063C137.81 50.8263 135.56 43.3163 136.94 34.9263C138.48 25.5863 146.2 19.7663 156.15 20.1963C165.12 20.5863 172.01 26.9663 173.11 36.1463C174.08 44.2163 171.7 51.3663 166.59 57.6163C166.04 58.2863 166.03 58.7063 166.48 59.3863C168.53 62.4963 171.5 64.1863 175.04 64.8763C180.37 65.9063 183.96 69.0962 186.38 73.7562C189.27 79.3362 189.73 85.3763 189.45 91.5163C189.39 92.8363 188.33 93.8363 187.01 93.9863C186.57 94.0363 186.12 94.0163 185.67 94.0163C124.96 94.0163 64.2495 94.0163 3.53954 94.0163C1.03954 94.0163 0.0995395 93.1463 0.0295395 90.5963C-0.13046 84.8663 0.389539 79.2263 3.02954 74.0163C5.45954 69.2163 9.10954 65.9162 14.5795 64.8562C18.0395 64.1862 20.9495 62.5363 22.9895 59.5363C23.4795 58.8163 23.5395 58.3363 22.9095 57.5463C17.2895 50.5163 14.8795 42.5963 16.8995 33.6763C18.5995 26.1563 24.6495 20.9963 32.3495 20.2763C38.6895 19.6763 44.2895 21.3063 48.5495 26.2763C52.1595 30.4763 53.2895 35.5163 52.9395 40.9163C52.5395 47.0763 50.4295 52.6163 46.4395 57.3563C45.6495 58.2863 45.7395 58.8763 46.3595 59.7263C48.3695 62.5063 51.1395 64.0063 54.3895 64.8163C56.0295 65.2263 57.6295 65.7662 59.1395 66.2162C60.8795 64.7162 62.7095 63.1963 64.4495 61.5963C64.7595 61.3163 64.8195 60.6563 64.8195 60.1763C64.8395 50.1563 64.8395 40.1463 64.8395 30.1263C64.8395 23.0563 67.0395 16.7663 71.3895 11.2063C82.6895 -3.21375 105.05 -3.81375 117.11 9.96625C122.19 15.7763 124.69 22.5163 124.68 30.2063C124.68 40.1363 124.68 50.0763 124.66 60.0063C124.66 60.9363 124.91 61.5063 125.68 62.1163C127.33 63.4063 128.82 64.8862 130.34 66.2562L130.35 66.2663ZM82.7095 61.4563C77.5295 62.4963 72.3695 63.3462 67.8595 66.2562C64.6995 68.3062 62.2295 71.0362 61.8195 74.8262C61.3395 79.2262 61.4495 83.6962 61.2995 88.1862H128.09C128.09 84.3062 128.21 80.5363 128.05 76.7763C127.9 73.2863 126.48 70.2462 123.83 67.9062C118.97 63.6163 112.87 62.6563 106.83 61.4563C106.67 61.8463 106.57 62.1063 106.47 62.3763C103.56 70.1463 100.66 77.9263 97.7495 85.6963C97.1795 87.2063 96.2195 87.8762 94.7395 87.8562C93.2995 87.8462 92.3795 87.1863 91.8295 85.7363C90.5295 82.2863 89.2295 78.8363 87.9395 75.3863C86.2095 70.7663 84.4795 66.1563 82.7095 61.4463V61.4563ZM118.86 58.3563C118.88 58.1163 118.93 57.8363 118.93 57.5563C118.93 48.0263 119.07 38.4963 118.86 28.9663C118.68 20.6763 114.85 14.1263 107.92 9.68625C99.9295 4.55625 91.4395 4.20625 83.1195 8.81625C74.8695 13.3963 70.7195 20.6763 70.6295 30.1663C70.5695 36.8563 70.5895 43.5463 70.5795 50.2363C70.5795 52.9463 70.5795 55.6563 70.5795 58.3763C74.3495 57.4563 77.9795 56.5663 81.9695 55.5963C81.5495 54.6663 81.2395 53.8463 80.8095 53.0963C80.3495 52.2863 79.7295 51.5763 79.2595 50.7763C75.2595 43.9763 74.0795 36.5263 74.3795 28.7863C74.4095 27.9663 74.9495 26.9763 75.5595 26.3963C78.4195 23.7063 81.3895 21.1263 84.3295 18.5063C85.9495 17.0663 87.3195 17.0763 88.9395 18.5163C92.0495 21.2663 95.4095 23.6663 99.1595 25.4663C103.18 27.3963 107.31 28.5763 111.86 27.5863C113.73 27.1763 115.25 28.5463 115.19 30.4863C115.12 32.9163 114.99 35.3563 114.67 37.7563C113.91 43.3763 112.1 48.6363 108.6 53.1763C107.97 53.9863 107.68 54.7463 107.96 55.7063C111.59 56.5863 115.2 57.4663 118.85 58.3563H118.86ZM183.8 88.2363C183.63 83.7763 183.12 79.5462 180.87 75.7262C179.24 72.9562 176.96 71.1163 173.69 70.4263C171.66 69.9963 169.73 69.0663 167.82 68.2063C167.16 67.9063 166.77 67.9063 166.21 68.3063C163.23 70.4063 160.23 72.4762 157.23 74.5462C155.34 75.8562 154.58 75.8663 152.72 74.5863C149.75 72.5363 146.81 70.4562 143.82 68.4362C143.43 68.1762 142.77 68.0162 142.35 68.1562C139.94 68.9463 137.59 69.9263 135.17 70.6663C132.96 71.3463 132.88 71.3562 133.37 73.5762C133.41 73.7762 133.47 73.9763 133.47 74.1763C133.6 78.3363 133.72 82.5063 133.84 86.6663C133.86 87.1763 133.88 87.6763 133.91 88.2363H183.79H183.8ZM46.2895 68.0263C43.4295 70.0163 40.1695 72.2762 36.9095 74.5462C34.9995 75.8662 34.2295 75.8762 32.2895 74.5362C29.3295 72.4862 26.3495 70.4362 23.4095 68.3562C22.7995 67.9262 22.3595 67.9662 21.6695 68.2562C19.6295 69.1162 17.5595 69.9663 15.4295 70.5563C13.7795 71.0163 12.2895 71.6363 11.0595 72.8063C6.63954 77.0163 6.04954 82.5262 5.70954 88.2262H55.6595C55.6595 87.1062 55.6295 86.0563 55.6595 85.0163C55.8095 81.2163 55.8395 77.4063 56.1895 73.6263C56.3995 71.3663 56.5095 71.1863 54.2695 70.6763C54.1095 70.6363 53.9395 70.6463 53.7895 70.5963C51.3895 69.7863 48.9995 68.9662 46.2695 68.0362L46.2895 68.0263ZM86.6195 24.1763C84.8695 25.7363 83.2695 27.2863 81.5295 28.6763C80.3395 29.6263 79.7595 30.6363 80.0695 32.1963C80.3095 33.4163 80.2295 34.7063 80.3995 35.9463C81.0595 40.8663 82.3995 45.5363 85.3895 49.6163C90.1795 56.1463 99.0295 56.2563 103.97 49.8463C106.82 46.1463 108.2 41.8663 108.93 37.3363C109.12 36.1563 109.23 34.9663 109.39 33.7163C100.4 33.6563 93.3695 29.3563 86.6395 24.1763H86.6195ZM167.42 37.2263C166.95 37.3263 166.56 37.3963 166.18 37.4963C160.73 38.9063 155.52 38.5363 150.59 35.5963C150.31 35.4263 149.73 35.5763 149.38 35.7563C147.79 36.6063 146.3 37.7163 144.64 38.3763C142.22 39.3263 142.1 39.2063 142.44 41.7663C143.18 47.3263 145.25 52.2463 149.72 55.8563C153.04 58.5363 156.58 58.5563 159.98 56.0063C163.46 53.3963 165.41 49.7463 166.66 45.6863C167.49 42.9663 167.85 40.1763 167.43 37.2263H167.42ZM21.8995 39.0163C22.1395 45.4563 24.0295 51.0363 28.7695 55.3763C32.4395 58.7363 36.5995 58.7563 40.3595 55.4363C44.4395 51.8263 46.4295 47.1063 47.0895 41.7963C47.2695 40.3063 47.1195 38.7863 47.1195 37.1463C44.0095 38.0963 41.0495 38.4863 38.0195 38.2063C34.9895 37.9163 32.2195 36.8563 29.6295 35.2163C27.4595 37.3163 24.9095 38.4863 21.8995 39.0263V39.0163ZM87.8995 58.9263C90.1995 65.0563 92.4295 70.9963 94.7795 77.2463C97.1295 70.9463 99.3395 65.0263 101.59 58.9663C95.7195 61.0463 92.4095 60.5463 87.8995 58.9363V58.9263ZM23.5495 32.2463C23.6495 32.3663 23.7395 32.4763 23.8395 32.5963C24.7595 31.7263 25.7695 30.9463 26.5695 29.9763C28.4095 27.7663 29.8695 27.6063 31.9195 29.5663C35.1095 32.6163 41.3295 33.5363 45.2795 31.4963C42.7795 27.5663 39.0995 25.9163 34.6095 25.9163C29.7395 25.9163 25.9295 27.8763 23.5495 32.2463ZM165.58 31.5663C163.37 27.6463 158.76 25.4763 153.79 25.9363C149.1 26.3763 145.17 28.9563 144.15 32.4763C145.29 31.5563 146.37 30.5663 147.32 29.4663C148.65 27.9263 150.43 27.7563 151.87 29.1463C155.41 32.5663 160.97 33.5563 165.59 31.5563L165.58 31.5663ZM40.9695 61.9763C36.7295 64.1463 32.5195 64.1663 28.2795 62.0063C27.8295 62.6263 27.4195 63.1963 26.9595 63.8263C29.5695 65.6363 32.0895 67.3763 34.6095 69.1263C37.1995 67.3263 39.7095 65.5763 42.2095 63.8363C41.7695 63.1863 41.4195 62.6563 40.9695 61.9863V61.9763ZM161.32 61.9863C157.09 64.1563 152.85 64.1663 148.63 62.0163C148.17 62.6463 147.77 63.1963 147.32 63.8063C149.75 65.5063 152.12 67.1763 154.52 68.8063C154.72 68.9363 155.17 68.9363 155.36 68.8063C157.76 67.1763 160.13 65.5163 162.55 63.8363C162.11 63.1763 161.74 62.6163 161.32 61.9863Z" fill="#D81D1B"/>
</svg>
